PathFileType	4	(X/Y/Z)	/Users/itak/Documents/Research/Walk-IL/dataset/trc/00348_00011.trc
DataRate	CameraRate	NumFrames	NumMarkers	Units	OrigDataRate	OrigDataStartFrame	OrigNumFrames
100.000000	100.000000	4	56	mm	100.000000	412	660
Frame#	Time	RPSI			LPSI			STRN			T10			C7			CLAV			RBAK			LBAK			LSHO			LUPA			LAEL			LAOL			LWTS			LWPS			LFRA			LHPS			LHTS			RSHO			RUPA			RAEL			RAOL			RWTS			RWPS			RFRA			RIFD			RHTS			RHPS			RBHD			LFHD			RFHD			LBHD			LHIP			RHIP			RASI			LASI			LKNE			LTHI			LANK			LTIP			LTOE			LMT1			LMT5			LHEE			RKNE			RANK			RTIP			RTOE			RMT1			RMT5			RHEE			RTHI			L3			LIFD			*53			*54			*55			
		X1	Y1	Z1	X2	Y2	Z2	X3	Y3	Z3	X4	Y4	Z4	X5	Y5	Z5	X6	Y6	Z6	X7	Y7	Z7	X8	Y8	Z8	X9	Y9	Z9	X10	Y10	Z10	X11	Y11	Z11	X12	Y12	Z12	X13	Y13	Z13	X14	Y14	Z14	X15	Y15	Z15	X16	Y16	Z16	X17	Y17	Z17	X18	Y18	Z18	X19	Y19	Z19	X20	Y20	Z20	X21	Y21	Z21	X22	Y22	Z22	X23	Y23	Z23	X24	Y24	Z24	X25	Y25	Z25	X26	Y26	Z26	X27	Y27	Z27	X28	Y28	Z28	X29	Y29	Z29	X30	Y30	Z30	X31	Y31	Z31	X32	Y32	Z32	X33	Y33	Z33	X34	Y34	Z34	X35	Y35	Z35	X36	Y36	Z36	X37	Y37	Z37	X38	Y38	Z38	X39	Y39	Z39	X40	Y40	Z40	X41	Y41	Z41	X42	Y42	Z42	X43	Y43	Z43	X44	Y44	Z44	X45	Y45	Z45	X46	Y46	Z46	X47	Y47	Z47	X48	Y48	Z48	X49	Y49	Z49	X50	Y50	Z50	X51	Y51	Z51	X52	Y52	Z52	X53	Y53	Z53	X54	Y54	Z54	X55	Y55	Z55	X56	Y56	Z56	

413	4.12	294.4710693359375	952.5703735351562	-414.3769226074219	357.3196716308594	961.6431274414062	-528.540283203125	527.3466186523438	1205.206420898438	-351.1502685546875	323.0071105957031	1141.594848632812	-478.490966796875	368.5209045410156	1389.14990234375	-468.6050415039062	493.4096984863281	1331.329223632812	-376.9215698242188	288.9573669433594	1250.278076171875	-440.2258911132812	412.8984985351562	1353.73291015625	-559.749267578125	515.0202026367188	1367.368530273438	-558.387939453125	530.8557739257812	1252.028198242188	-629.7217407226562	544.4774780273438	1052.871826171875	-657.4818115234375	463.3135681152344	1037.844360351562	-635.4413452148438	605.9034423828125	800.8206787109375	-612.1892700195312	595.6282348632812	800.16064453125	-680.7213134765625	559.113037109375	949.575927734375	-672.7890625	585.0452270507812	729.5108642578125	-685.7589721679688	618.0720825195312	722.40771484375	-630.4738159179688	322.3297119140625	1376.933837890625	-304.6011962890625	274.3681030273438	1312.757568359375	-262.4638061523438	242.4253845214844	1048.238647460938	-225.3118743896484	272.8541564941406	1035.776977539062	-312.751220703125	411.96142578125	878.543701171875	-150.6179504394531	352.0303955078125	847.8069458007812	-114.9032516479492	265.6690673828125	989.6382446289062	-192.5631866455078	475.1881408691406	724.70947265625	-101.6955490112305	457.9864501953125	796.8168334960938	-101.9248886108398	393.0284118652344	775.861328125	-91.20079040527344	364.5537109375	1592.670776367188	-378.4797058105469	569.7879028320312	1594.114990234375	-344.0010986328125	493.4586181640625	1593.1650390625	-277.9345092773438	454.5160827636719	1591.29296875	-490.6533813476562	488.5709228515625	916.4931030273438	-577.9708862304688	313.5276794433594	889.3663940429688	-284.7493591308594	424.4709777832031	923.9378051757812	-266.8718566894531	559.4779052734375	939.5589599609375	-464.5225830078125	656.7277221679688	486.1921081542969	-531.657470703125	624.82373046875	613.0872802734375	-543.2996215820312	396.3764343261719	192.0950927734375	-730.6131591796875	541.7318115234375	325.8586120605469	-638.3201293945312	505.37158203125	46.60502243041992	-620.513916015625	434.3595581054688	81.44609832763672	-605.6143798828125	480.2304992675781	101.5945663452148	-708.9660034179688	340.5374755859375	205.7912750244141	-682.0820922851562	433.3714599609375	430.0682678222656	-351.4524536132812	432.8879699707031	44.00633239746094	-486.5931701660156	461.6869506835938	314.7879333496094	-382.7745666503906	622.0633544921875	38.19490814208984	-422.6188049316406	599.29150390625	32.2441291809082	-487.6655578613281	506.23876953125	32.71706771850586	-414.9593505859375	419.0235595703125	45.62728881835938	-553.2031860351562	404.4176635742188	681.5452880859375	-271.9475402832031	324.521728515625	1021.629577636719	-467.2693481445312	594.0204467773438	641.3348388671875	-616.7739868164062	nan	nan	nan	nan	nan	nan	nan	nan	nan	
414	4.13	300.3602600097656	952.3273315429688	-414.3337707519531	365.9884338378906	961.5335693359375	-526.9403686523438	532.0538330078125	1205.262817382812	-345.5402526855469	330.1493225097656	1141.795532226562	-476.9860534667969	375.67431640625	1389.334106445312	-466.0040893554688	498.7427673339844	1331.3603515625	-372.1171875	295.4348449707031	1250.578369140625	-439.0892333984375	421.7884216308594	1353.995483398438	-556.4442749023438	523.7544555664062	1367.178100585938	-553.1742553710938	539.5906372070312	1251.707641601562	-624.3470458984375	550.1350708007812	1052.289916992188	-651.5282592773438	468.5022888183594	1038.576782226562	-630.4408569335938	606.4710083007812	798.999267578125	-605.3307495117188	596.9876098632812	798.5565185546875	-674.026611328125	563.1384887695312	948.6793212890625	-666.5322265625	585.0812377929688	728.0253295898438	-679.135498046875	617.2667846679688	720.284912109375	-623.4373779296875	326.4996337890625	1377.20849609375	-302.8646545410156	277.9939880371094	1312.913696289062	-261.2964172363281	247.3103485107422	1048.413696289062	-222.00341796875	278.1052551269531	1035.434692382812	-309.2284545898438	420.67919921875	884.1746826171875	-144.8848724365234	361.4602661132812	852.3695678710938	-108.8712921142578	271.6741027832031	990.8317260742188	-188.5654602050781	487.9753112792969	732.851318359375	-93.53202056884766	468.8729858398438	804.5128173828125	-94.91535186767578	404.4278259277344	781.931640625	-83.91835784912109	370.2198791503906	1592.726806640625	-375.4407653808594	574.8790893554688	1594.227661132812	-338.0266418457031	497.7289428710938	1593.164794921875	-273.0085754394531	461.7537841796875	1591.51171875	-486.322998046875	498.8145141601562	916.9309692382812	-572.9108276367188	316.3647155761719	888.9727783203125	-284.3012084960938	426.9542541503906	923.88525390625	-263.1098022460938	566.4112548828125	940.0213012695312	-457.6737365722656	669.39111328125	488.2057800292969	-519.02001953125	636.7239379882812	614.8917236328125	-532.7578125	424.5874328613281	184.3341979980469	-722.6992797851562	562.2595825195312	323.9232482910156	-627.5377807617188	539.79833984375	46.57925033569336	-608.359130859375	465.9402160644531	76.81900024414062	-595.6509399414062	513.5958862304688	99.941650390625	-697.6244506835938	366.526611328125	194.7960357666016	-675.826416015625	434.9258422851562	429.9143676757812	-350.4337158203125	432.9461059570312	44.09344482421875	-486.58544921875	462.9206848144531	314.4932250976562	-381.9584655761719	622.1409301757812	38.01543045043945	-422.6405944824219	599.3846435546875	32.14831161499023	-487.6831970214844	506.2422180175781	32.7354621887207	-414.9599609375	419.2566833496094	45.82107162475586	-553.190673828125	406.3068542480469	681.0542602539062	-270.6564636230469	331.1294860839844	1021.876892089844	-466.5519104003906	592.2869873046875	639.2824096679688	-610.2220458984375	nan	nan	nan	nan	nan	nan	nan	nan	nan	
415	4.14	306.2615051269531	952.0376586914062	-414.3106079101562	374.6748352050781	961.3612060546875	-525.27685546875	536.7051391601562	1205.209350585938	-339.9118041992188	337.2373352050781	1141.9375	-475.4335632324219	382.8217163085938	1389.440795898438	-463.3003540039062	504.0434875488281	1331.294677734375	-367.2566528320312	301.8629760742188	1250.818481445312	-437.8974609375	430.7095642089844	1354.222290039062	-553.034423828125	532.4219970703125	1366.860717773438	-547.8094482421875	548.2137451171875	1251.319946289062	-618.90869140625	555.7667236328125	1051.687866210938	-645.5955200195312	473.6815795898438	1039.250610351562	-625.4552001953125	607.2774658203125	797.422607421875	-598.4968872070312	598.54248046875	797.048583984375	-667.3225708007812	567.1793823242188	947.78369140625	-660.3295288085938	585.39892578125	726.5686645507812	-672.3787841796875	616.8623046875	718.4271850585938	-616.3536376953125	330.6668395996094	1377.377319335938	-301.0762939453125	281.6239624023438	1312.968627929688	-260.1141052246094	252.0771331787109	1048.50927734375	-218.6633758544922	283.2370300292969	1035.013671875	-305.6708984375	428.9329223632812	889.6649780273438	-139.1563568115234	370.3527526855469	856.7841186523438	-102.9643249511719	277.4468994140625	991.9202880859375	-184.5613403320312	499.9810485839844	740.7705078125	-85.55611419677734	479.0921936035156	811.9691162109375	-88.01498413085938	415.1805419921875	787.8504638671875	-76.8118896484375	375.8220825195312	1592.684204101562	-372.3649597167969	579.9031372070312	1594.271484375	-331.968017578125	501.9325866699219	1593.082275390625	-268.0112609863281	468.97265625	1591.637329101562	-481.9006958007812	509.0273742675781	917.311279296875	-567.7153930664062	319.2504577636719	888.5380859375	-283.9393005371094	429.305419921875	923.7068481445312	-259.5306091308594	573.2413940429688	940.4008178710938	-450.7994079589844	681.2832641601562	490.0640563964844	-506.3609008789062	648.0979614257812	616.5399780273438	-522.1210327148438	452.9733581542969	176.0259552001953	-713.4581298828125	582.3903198242188	321.5121765136719	-616.1314697265625	573.58203125	46.54145050048828	-594.4425659179688	497.2803344726562	72.18199920654297	-584.0735473632812	546.5225830078125	97.97218322753906	-684.6453857421875	392.8700256347656	183.2550506591797	-668.3384399414062	436.6599426269531	429.7524719238281	-349.34716796875	433.0104675292969	44.21061325073242	-486.5860290527344	464.3111267089844	314.1724548339844	-381.1014099121094	622.2214965820312	37.8369140625	-422.6659851074219	599.4884033203125	32.04072952270508	-487.7081604003906	506.258544921875	32.76481246948242	-414.9738159179688	419.4929809570312	46.03441619873047	-553.1904907226562	408.2109985351562	680.5364990234375	-269.4002990722656	337.6642761230469	1022.105102539062	-465.880126953125	591.127685546875	637.4999389648438	-603.6173095703125	nan	nan	nan	nan	nan	nan	nan	nan	nan	
416	4.15	312.1836242675781	951.7335205078125	-414.2922668457031	383.4076843261719	961.1470947265625	-523.53564453125	541.311279296875	1205.057373046875	-334.2689514160156	344.2355651855469	1142.020751953125	-473.8361206054688	389.9535522460938	1389.470825195312	-460.4864196777344	509.3134765625	1331.141357421875	-362.3429870605469	308.269775390625	1250.992065429688	-436.6357116699219	439.6223754882812	1354.400146484375	-549.49560546875	541.0057373046875	1366.425537109375	-542.302978515625	556.7405395507812	1250.882934570312	-613.4087524414062	561.3958740234375	1051.060180664062	-639.6864013671875	478.8831176757812	1039.870849609375	-620.4692993164062	608.334228515625	796.0523071289062	-591.6741333007812	600.3219604492188	795.6332397460938	-660.6043701171875	571.2754516601562	946.8914184570312	-654.169189453125	586.0072631835938	725.1343994140625	-665.4996948242188	616.8802490234375	716.8092651367188	-609.2335815429688	334.8294677734375	1377.44091796875	-299.2314453125	285.2661437988281	1312.924072265625	-258.9025573730469	256.7449645996094	1048.519653320312	-215.2923736572266	288.2351989746094	1034.516479492188	-302.0880432128906	436.7298889160156	894.9678955078125	-133.4617309570312	378.7447204589844	861.0106201171875	-97.17629241943359	282.9904479980469	992.8970947265625	-180.5532531738281	511.2181091308594	748.4076538085938	-77.76605987548828	488.6588439941406	819.122314453125	-81.24475860595703	425.3155822753906	793.5740966796875	-69.87399291992188	381.3681945800781	1592.552856445312	-369.2462768554688	584.8676147460938	1594.234619140625	-325.8275756835938	506.0747375488281	1592.913452148438	-262.9468688964844	476.1763916015625	1591.672241210938	-477.3816833496094	519.1755981445312	917.6423950195312	-562.40185546875	322.1964721679688	888.08935546875	-283.6453857421875	431.5271606445312	923.3782348632812	-256.1710205078125	579.9735107421875	940.70703125	-443.9068908691406	692.4297485351562	491.7378845214844	-493.7238159179688	658.9600830078125	618.0188598632812	-511.4430236816406	481.4383850097656	167.2156372070312	-702.8067016601562	602.1288452148438	318.6654663085938	-604.103515625	606.490478515625	46.49236679077148	-578.699462890625	528.1802978515625	67.60470581054688	-570.7782592773438	578.8189697265625	95.60762786865234	-669.9784545898438	419.51318359375	171.3122711181641	-659.5146484375	438.5857238769531	429.5700378417969	-348.1519775390625	433.0822143554688	44.35811233520508	-486.5889892578125	465.880615234375	313.8219604492188	-380.1929626464844	622.3013305664062	37.66476440429688	-422.6923217773438	599.600341796875	31.92955017089844	-487.7384643554688	506.2885437011719	32.80087280273438	-414.9980163574219	419.6926574707031	46.27438354492188	-553.2051391601562	410.166015625	680.001708984375	-268.1574401855469	344.20068359375	1022.304382324219	-465.219970703125	590.49609375	635.9635620117188	-596.9772338867188	nan	nan	nan	nan	nan	nan	nan	nan	nan	
